<svg width="64" height="65" viewBox="0 0 64 65" fill="none" xmlns="http://www.w3.org/2000/svg">
<g id="Default_pfp 1" clip-path="url(#clip0_27_1010)">
<path id="Vector" d="M31.8118 0.924896C23.3912 0.97423 15.3339 4.32712 9.40608 10.2486C3.47823 16.1701 0.163458 24.177 0.188372 32.5143C0.213285 40.8516 3.57585 48.839 9.53898 54.7257C15.5021 60.6123 23.5793 63.9179 32 63.9179C40.4207 63.9179 48.4979 60.6123 54.461 54.7257C60.4241 48.839 63.7867 40.8516 63.8116 32.5143C63.8365 24.177 60.5218 16.1701 54.5939 10.2486C48.6661 4.32712 40.6088 0.97423 32.1882 0.924896H31.8118ZM31.8118 16.9529C35.5893 17.0021 39.1938 18.5287 41.8386 21.1996C44.4835 23.8704 45.954 27.4687 45.9291 31.2091C45.9042 34.9494 44.3861 38.5282 41.706 41.1644C39.0259 43.8006 35.4014 45.2801 31.6235 45.2801C27.8457 45.2801 24.2212 43.8006 21.5411 41.1644C18.861 38.5282 17.3428 34.9494 17.318 31.2091C17.2931 27.4687 18.7636 23.8704 21.4084 21.1996C24.0533 18.5287 27.6578 17.0021 31.4353 16.9529H31.8118ZM10.7294 54.3204C14.1176 49.9717 18.3216 47.7974 23.3412 47.7974H40.6588C45.6784 47.7974 49.8824 49.9717 53.2706 54.3204C47.5324 59.7217 39.9175 62.7337 32 62.7337C24.0824 62.7337 16.4676 59.7217 10.7294 54.3204Z" fill="#DDDDDD"/>
</g>
<defs>
<clipPath id="clip0_27_1010">
<rect width="64" height="63.3663" fill="white" transform="translate(0 0.831696)"/>
</clipPath>
</defs>
</svg>
