<svg width="127" height="127" viewBox="0 0 127 127" fill="none" xmlns="http://www.w3.org/2000/svg">
<g id="printer-88 1">
<path id="Vector" d="M100.583 83.8647H26.417C25.5984 83.8647 24.9287 83.1949 24.9287 82.3764V43.2222C24.9287 39.9355 27.5952 37.269 30.8818 37.269H96.1182C99.4048 37.269 102.071 39.9355 102.071 43.2222V82.3764C102.071 83.1949 101.402 83.8647 100.583 83.8647Z" fill="#28B1D5"/>
<path id="Vector_2" d="M100.583 83.8647H26.417C25.5984 83.8647 24.9287 83.1949 24.9287 82.3764V44.5244H102.071V82.3764C102.071 83.1949 101.402 83.8647 100.583 83.8647Z" fill="#198EBC"/>
<path id="Vector_3" d="M100.583 85.1049H26.417C24.9163 85.1049 23.6885 83.8771 23.6885 82.3764V43.2222C23.6885 39.2534 26.9131 36.0288 30.8818 36.0288H96.1182C100.087 36.0288 103.312 39.2534 103.312 43.2222V82.3764C103.312 83.8771 102.084 85.1049 100.583 85.1049ZM30.8818 38.5093C28.2773 38.5093 26.1689 40.6177 26.1689 43.2222V82.3764C26.1689 82.5128 26.2806 82.6244 26.417 82.6244H100.583C100.719 82.6244 100.831 82.5128 100.831 82.3764V43.2222C100.831 40.6177 98.7227 38.5093 96.1182 38.5093H30.8818Z" fill="#322E63"/>
<path id="Vector_4" d="M91.2316 79.2758H35.7683C34.9498 79.2758 34.28 78.6061 34.28 77.7875V20.2778C34.28 16.9912 36.9465 14.3247 40.2332 14.3247H75.7907L92.7199 31.2539V77.7875C92.7199 78.6061 92.0501 79.2758 91.2316 79.2758Z" fill="white"/>
<path id="Vector_5" d="M35.7683 44.5244H91.2192C92.0377 44.5244 92.7075 44.8841 92.7075 45.3182V76.0884C92.7075 77.8495 90.041 79.2758 86.7543 79.2758H51.2092L34.28 70.2221V45.3182C34.28 44.8841 34.9498 44.5244 35.7683 44.5244Z" fill="#B9D5EA"/>
<path id="Vector_6" d="M91.2316 80.516H35.7683C34.2676 80.516 33.0398 79.2882 33.0398 77.7875V20.2778C33.0398 16.3091 36.2644 13.0845 40.2332 13.0845H75.7907C76.1255 13.0845 76.4356 13.2209 76.6712 13.4441L93.588 30.3857C93.8237 30.6214 93.9477 30.9314 93.9477 31.2663V77.7999C93.9601 79.2882 92.7323 80.516 91.2316 80.516ZM40.2332 15.5649C37.6287 15.5649 35.5203 17.6733 35.5203 20.2778V77.7875C35.5203 77.9239 35.6319 78.0356 35.7683 78.0356H91.2192C91.3556 78.0356 91.4672 77.9239 91.4672 77.7875V31.7748L75.2698 15.5649H40.2332Z" fill="#322E63"/>
<path id="Vector_7" d="M92.72 31.2539H81.7439C78.4697 31.2539 75.7908 28.575 75.7908 25.3008V14.3247L92.72 31.2539Z" fill="#FFB850"/>
<path id="Vector_8" d="M92.7198 32.4942H81.7437C77.775 32.4942 74.5504 29.2695 74.5504 25.3008V14.3247C74.5504 13.8286 74.848 13.3697 75.3193 13.1837C75.7782 12.9977 76.3115 13.0969 76.6712 13.4566L93.588 30.3858C93.9477 30.7454 94.0469 31.2787 93.8608 31.7376C93.6748 32.1965 93.2159 32.4942 92.7198 32.4942ZM77.0309 17.3261V25.3008C77.0309 27.9053 79.1393 30.0137 81.7437 30.0137H89.7185L77.0309 17.3261ZM82.0786 41.7215H72.6776C71.9955 41.7215 71.4374 41.1634 71.4374 40.4813C71.4374 39.7991 71.9955 39.241 72.6776 39.241H82.0786C82.7607 39.241 83.3188 39.7991 83.3188 40.4813C83.3188 41.1634 82.7731 41.7215 82.0786 41.7215ZM65.5587 41.7215H43.7554C43.0732 41.7215 42.5151 41.1634 42.5151 40.4813C42.5151 39.7991 43.0732 39.241 43.7554 39.241H65.5587C66.2408 39.241 66.7989 39.7991 66.7989 40.4813C66.7989 41.1634 66.2408 41.7215 65.5587 41.7215ZM59.0103 32.4942H43.7554C43.0732 32.4942 42.5151 31.936 42.5151 31.2539C42.5151 30.5718 43.0732 30.0137 43.7554 30.0137H59.0103C59.6924 30.0137 60.2505 30.5718 60.2505 31.2539C60.2505 31.936 59.6924 32.4942 59.0103 32.4942Z" fill="#322E63"/>
<path id="Vector_9" d="M106.859 107.218H20.0793C15.168 107.218 11.1497 103.2 11.1497 98.2886V55.3765C11.1497 52.1022 13.8286 49.4233 17.1028 49.4233H109.835C113.109 49.4233 115.788 52.1022 115.788 55.3765V98.2886C115.788 103.2 111.77 107.218 106.859 107.218Z" fill="white"/>
<path id="Vector_10" d="M106.859 107.218H20.0793C15.168 107.218 11.1497 103.2 11.1497 98.2886V91.0704H115.788V98.2886C115.788 103.2 111.77 107.218 106.859 107.218Z" fill="#B9D5EA"/>
<path id="Vector_11" d="M106.859 108.458H20.0793C14.4735 108.458 9.90942 103.894 9.90942 98.2886V55.3765C9.90942 51.4077 13.134 48.1831 17.1028 48.1831H109.835C113.804 48.1831 117.028 51.4077 117.028 55.3765V98.2886C117.028 103.907 112.477 108.458 106.859 108.458ZM17.1028 50.6636C14.4983 50.6636 12.3899 52.772 12.3899 55.3765V98.2886C12.3899 102.53 15.8377 105.978 20.0793 105.978H106.859C111.1 105.978 114.548 102.53 114.548 98.2886V55.3765C114.548 52.772 112.44 50.6636 109.835 50.6636H17.1028Z" fill="#322E63"/>
<path id="Vector_12" d="M100.583 107.218H26.3674C25.5489 107.218 24.8792 106.549 24.8792 105.73V93.154C24.8792 89.8798 27.5581 87.2009 30.8323 87.2009H96.1182C99.3924 87.2009 102.071 89.8798 102.071 93.154V105.73C102.071 106.549 101.402 107.218 100.583 107.218Z" fill="#322E63"/>
<path id="Vector_13" d="M100.583 108.458H26.3674C24.8667 108.458 23.6389 107.231 23.6389 105.73V93.154C23.6389 89.1852 26.8635 85.9606 30.8323 85.9606H96.1182C100.087 85.9606 103.312 89.1852 103.312 93.154V105.73C103.312 107.243 102.084 108.458 100.583 108.458ZM30.8323 88.4411C28.2278 88.4411 26.1194 90.5495 26.1194 93.154V105.73C26.1194 105.866 26.231 105.978 26.3674 105.978H100.583C100.719 105.978 100.831 105.866 100.831 105.73V93.154C100.831 90.5495 98.7227 88.4411 96.1182 88.4411H30.8323Z" fill="#322E63"/>
<path id="Vector_14" d="M100.583 96.1678H26.3674C25.5489 96.1678 24.8792 95.498 24.8792 94.6795V93.154C24.8792 89.8798 27.5581 87.2009 30.8323 87.2009H96.1182C99.3924 87.2009 102.071 89.8798 102.071 93.154V94.6795C102.071 95.498 101.402 96.1678 100.583 96.1678Z" fill="#28B1D5"/>
<path id="Vector_15" d="M100.583 96.1678H26.3674C25.5489 96.1678 24.8792 95.498 24.8792 94.6795V93.154C24.8792 89.8798 27.5581 87.2009 30.8323 87.2009H96.1182C99.3924 87.2009 102.071 89.8798 102.071 93.154V94.6795C102.071 95.498 101.402 96.1678 100.583 96.1678Z" fill="#198EBC"/>
<path id="Vector_16" d="M98.673 94.8407H28.2773C28.2773 92.3851 30.2865 90.3759 32.7422 90.3759H94.2082C96.6639 90.3759 98.673 92.3851 98.673 94.8407Z" fill="#28B1D5"/>
<path id="Vector_17" d="M100.583 97.408H26.3674C24.8667 97.408 23.6389 96.1802 23.6389 94.6795V93.154C23.6389 89.1852 26.8635 85.9606 30.8323 85.9606H96.1182C100.087 85.9606 103.312 89.1852 103.312 93.154V94.6795C103.312 96.1802 102.084 97.408 100.583 97.408ZM30.8323 88.4411C28.2278 88.4411 26.1194 90.5495 26.1194 93.154V94.6795C26.1194 94.8159 26.231 94.9275 26.3674 94.9275H100.583C100.719 94.9275 100.831 94.8159 100.831 94.6795V93.154C100.831 90.5495 98.7227 88.4411 96.1182 88.4411H30.8323Z" fill="#322E63"/>
<path id="Vector_18" d="M25.71 64.0581C25.71 65.012 26.0889 65.9268 26.7634 66.6013C27.4379 67.2759 28.3527 67.6548 29.3066 67.6548C30.2605 67.6548 31.1754 67.2759 31.8499 66.6013C32.5244 65.9268 32.9033 65.012 32.9033 64.0581C32.9033 63.1042 32.5244 62.1894 31.8499 61.5149C31.1754 60.8404 30.2605 60.4614 29.3066 60.4614C28.3527 60.4614 27.4379 60.8404 26.7634 61.5149C26.0889 62.1894 25.71 63.1042 25.71 64.0581Z" fill="#76C49A"/>
<path id="Vector_19" d="M29.3066 68.895C26.6401 68.895 24.4697 66.7246 24.4697 64.0581C24.4697 61.3916 26.6401 59.2212 29.3066 59.2212C31.9731 59.2212 34.1436 61.3916 34.1436 64.0581C34.1436 66.7246 31.9731 68.895 29.3066 68.895ZM29.3066 61.7017C28.0044 61.7017 26.9502 62.7559 26.9502 64.0581C26.9502 65.3604 28.0044 66.4146 29.3066 66.4146C30.6089 66.4146 31.6631 65.3604 31.6631 64.0581C31.6631 62.7683 30.6089 61.7017 29.3066 61.7017Z" fill="#322E63"/>
<path id="Vector_20" d="M11.1497 94.9275H115.788V97.408H11.1497V94.9275ZM66.0796 65.2983H40.5308C39.8487 65.2983 39.2906 64.7402 39.2906 64.0581C39.2906 63.376 39.8487 62.8179 40.5308 62.8179H66.0796C66.7618 62.8179 67.3199 63.376 67.3199 64.0581C67.3199 64.7526 66.7742 65.2983 66.0796 65.2983Z" fill="#322E63"/>
<path id="Vector_21" d="M96.1677 112.055H30.8322C30.0136 112.055 29.716 111.286 30.1625 110.356L33.6475 103.188C33.9948 102.468 34.8506 101.885 35.5575 101.885H91.4424C92.137 101.885 92.9927 102.468 93.3524 103.188L96.8375 110.356C97.2716 111.286 96.9863 112.055 96.1677 112.055Z" fill="white"/>
<path id="Vector_22" d="M95.188 105.978L93.3524 102.939C93.0052 102.357 92.1494 101.898 91.4425 101.898H35.5575C34.863 101.898 34.0072 102.357 33.6476 102.939L31.812 105.978H95.188Z" fill="#B9D5EA"/>
<path id="Vector_23" d="M96.1677 113.295H30.8321C30.0756 113.295 29.4183 112.948 29.0462 112.353C28.6121 111.658 28.6121 110.728 29.0586 109.823L32.5437 102.654C33.1018 101.501 34.3792 100.657 35.5698 100.657H91.4548C92.6454 100.657 93.9105 101.501 94.481 102.654L97.966 109.823C98.4125 110.741 98.4125 111.658 97.9784 112.353C97.5691 112.961 96.9242 113.295 96.1677 113.295ZM31.3282 110.815H95.6716L92.2361 103.733C92.0625 103.386 91.616 103.125 91.4424 103.125H35.5574C35.3838 103.125 34.9373 103.374 34.7637 103.733L31.3282 110.815Z" fill="#322E63"/>
</g>
</svg>
