<svg width="64" height="64" viewBox="0 0 64 64" fill="none" xmlns="http://www.w3.org/2000/svg">
<g id="Default_pfp 1" clip-path="url(#clip0_27_1024)">
<path id="Vector" d="M31.8118 0.0941162C23.3912 0.143943 15.3339 3.53036 9.40608 9.51106C3.47823 15.4918 0.163458 23.5788 0.188372 31.9994C0.213285 40.4201 3.57585 48.4874 9.53898 54.4329C15.5021 60.3784 23.5793 63.7171 32 63.7171C40.4207 63.7171 48.4979 60.3784 54.461 54.4329C60.4241 48.4874 63.7867 40.4201 63.8116 31.9994C63.8365 23.5788 60.5218 15.4918 54.5939 9.51106C48.6661 3.53036 40.6088 0.143943 32.1882 0.0941162H31.8118ZM31.8118 16.2824C35.5893 16.3321 39.1938 17.874 41.8386 20.5715C44.4835 23.2691 45.954 26.9033 45.9291 30.6811C45.9042 34.4589 44.3861 38.0735 41.706 40.736C39.0259 43.3985 35.4014 44.8929 31.6235 44.8929C27.8457 44.8929 24.2212 43.3985 21.5411 40.736C18.861 38.0735 17.3428 34.4589 17.318 30.6811C17.2931 26.9033 18.7636 23.2691 21.4084 20.5715C24.0533 17.874 27.6578 16.3321 31.4353 16.2824H31.8118ZM10.7294 54.0235C14.1176 49.6314 18.3216 47.4353 23.3412 47.4353H40.6588C45.6784 47.4353 49.8824 49.6314 53.2706 54.0235C47.5324 59.4789 39.9175 62.521 32 62.521C24.0824 62.521 16.4676 59.4789 10.7294 54.0235Z" fill="#DDDDDD"/>
</g>
<defs>
<clipPath id="clip0_27_1024">
<rect width="64" height="64" fill="white"/>
</clipPath>
</defs>
</svg>
